# xmcd
#
# Track frame offsets:
#	150
#	17799
#	35494
#	60247
#	80329
#	103036
#	125613
#	152162
#	171883
#	191474
#	225274
#	251039
#	273519
#
# Disc length: 4318 seconds
#
# Revision: 0
# Processed by: cddbd v1.5.2PL0 Copyright (c) Steve Scherf et al.
# Submitted via: EasyCDDAExtractor 16.0.9.1
#
DISCID=a210dc0d
DTITLE=Various Artist - Bài Ca Tết Cho Em
DYEAR=2011
DGENRE=Pop
TTITLE0=Quang Lê - Bài Ca Tết Cho Em
TTITLE1=Phi Nhung - Quê Hương Mùa Xuân
TTITLE2=Thế Sơn and Huong Thủy - Liên Khúc: Trăng Về Thôn Dã and Rước Tình Về Với 
TTITLE2=Quê Hương
TTITLE3=Mai Thiên Vân - Nghĩ Chuyện Ngày Xuân
TTITLE4=Như Quỳnh and The Sơn - Mùa Xuân Đầu Tiên
TTITLE5=Manh Quỳnh and Trường Vũ - Giọt Café Đầu Tiên
TTITLE6=Ngọc Hạ - Mùa Xuân Của Mẹ
TTITLE7=Như Quỳnh - Xuân Đẹp Làm Sao
TTITLE8=Duy Trường and Quỳnh Dung - Ngày Xuân Thăm Nhau
TTITLE9=Như Quỳnh, Thế Sơn, Mạnh Quỳnh and Phi Nhung - Liên Khúc: Xuân Này Con K
TTITLE9=hông Về and Cám Ơn
TTITLE10=Phương Diễm Hạnh - Hoa Đào Năm Trước
TTITLE11=Quang Lê - Thư Xuân Trên Rừng Cao
TTITLE12=Việt Hương, Bé Tí, Thúy Nga - Chúc Xuân
EXTD=
EXTT0=
EXTT1=
EXTT2=
EXTT3=
EXTT4=
EXTT5=
EXTT6=
EXTT7=
EXTT8=
EXTT9=
EXTT10=
EXTT11=
EXTT12=
PLAYORDER=
